PathFileType	4	(X/Y/Z)	C:\Users\Tech_3\Documents\Nikita\PSYC9080\walk1.trc
DataRate	CameraRate	NumFrames	NumMarkers	Units	OrigDataRate	OrigDataStartFrame	OrigNumFrames
120.00	120.00	      14	16	mm	120.00	1	      2520
Frame#	Time	R_1M			R_5M			R_CALC			R_MAL			R_KNEE			R_GT			R_ASIS			R_PSIS			L_1M			L_5M			L_CALC			L_MAL			L_KNEE			L_GT			L_ASIS			L_PSIS			
		X1	Y1	Z1	X2	Y2	Z2	X3	Y3	Z3	X4	Y4	Z4	X5	Y5	Z5	X6	Y6	Z6	X7	Y7	Z7	X8	Y8	Z8	X9	Y9	Z9	X10	Y10	Z10	X11	Y11	Z11	X12	Y12	Z12	X13	Y13	Z13	X14	Y14	Z14	X15	Y15	Z15	X16	Y16	Z16	

1	0.000	248.19005	49.12150	131.50441	143.83820	47.54264	102.45138	212.50201	86.01737	-67.94717	157.07870	143.14896	37.35188	139.31180	467.71118	228.16951	75.28088	842.27203	304.97769	158.91832	889.11035	409.06540	230.61816	967.03802	184.68221	327.74600	125.42797	718.87299	422.36359	115.19372	703.83276	348.13184	19.93447	543.85706	404.02106	119.76165	577.66034	399.33081	508.39822	478.91153	452.07962	811.57617	372.21576	354.07642	902.20062	427.26370	305.58926	955.60718	185.17020	
2	0.008	248.42261	49.01580	122.84394	143.54028	47.79359	93.73598	211.96898	90.89004	-75.47986	156.46117	145.87872	30.91870	139.67223	467.19247	227.92265	76.59235	841.67511	305.56842	159.76625	888.26758	410.45892	232.58694	966.39496	186.50877	323.66754	118.53721	712.47284	418.15771	108.89305	698.45624	348.74319	19.65962	534.67810	402.53723	116.62644	572.05103	399.55707	507.42004	480.14941	452.77155	811.01086	374.66226	354.51852	901.70978	429.54272	307.54584	955.06982	187.32269	
3	0.017	247.30479	48.57467	113.47658	143.53143	47.97305	85.08635	213.47769	96.80025	-82.65073	156.26450	148.52409	24.92464	139.78375	466.63852	227.90794	78.13988	840.98883	306.46872	160.43858	887.45465	411.75763	234.33501	965.77338	188.16577	319.97681	111.78619	705.54352	414.60059	103.01896	693.28491	348.29654	19.73359	525.38544	401.26755	113.30431	565.70862	399.14929	506.46136	481.42285	453.68497	810.13098	377.30576	355.28162	901.17487	432.04749	309.38419	954.56396	189.47708	
4	0.025	247.65886	48.57104	104.96964	143.28957	48.07212	76.51265	211.89320	102.53703	-89.44421	155.82281	151.43474	19.30691	140.06364	465.98196	228.32196	79.12450	840.52075	307.46320	161.48911	886.63086	413.41946	236.67651	965.19501	190.29919	316.30930	105.48186	699.17163	411.22787	97.78625	687.78387	348.58121	20.48655	516.52728	399.87482	110.99754	560.61951	398.35718	505.14832	482.28952	455.50723	809.75555	380.06702	356.51764	900.86963	434.55624	311.52884	954.05341	191.80917	
5	0.033	247.30223	48.30593	96.16977	143.18001	48.33957	68.07013	212.26709	109.62004	-95.77975	155.06708	154.74969	14.10543	140.22586	465.21497	229.21823	80.98505	839.99487	308.89636	162.38762	886.04285	415.01953	238.72015	964.61237	192.23271	313.29849	98.72697	693.28821	408.40561	92.21407	683.12299	348.46234	21.47430	507.64774	398.97104	109.25433	556.64600	397.10385	503.95584	482.79193	456.90128	809.46991	383.06113	357.04987	899.71472	436.94034	313.68887	953.68713	194.33633	
6	0.042	247.48392	48.50443	87.58073	143.11545	48.53125	59.66862	211.76279	116.01395	-101.22594	154.59782	158.14395	9.26426	140.14632	464.63400	230.79063	82.49983	839.55896	310.40359	163.03230	885.44312	416.62625	241.00368	963.97760	194.27350	310.95969	90.84444	687.67047	405.64178	86.00758	677.84448	348.69327	22.45520	499.33783	398.37500	107.73174	552.70227	396.61444	502.70233	482.73816	458.13388	808.56140	385.94028	358.64853	899.22723	439.69223	315.79788	953.31989	196.51343	
7	0.050	246.44144	48.28556	78.98670	142.97250	48.94707	51.56897	212.52657	123.88616	-106.33633	153.64172	161.92726	5.11055	139.74129	464.02670	232.67451	83.84949	839.22717	312.14462	164.64055	885.29932	419.09842	243.25063	963.36456	196.42493	308.80237	83.66192	681.34479	403.79056	79.84458	672.37823	348.77570	23.71922	490.24109	398.00995	106.07930	547.85437	396.71176	502.13736	482.31888	459.60193	808.22974	388.81445	359.61267	898.95197	441.95566	318.04395	952.93579	198.92250	
8	0.058	247.12473	48.20497	70.95564	142.81403	49.51576	43.70892	212.78740	131.83046	-110.38906	152.51222	165.98094	1.57732	139.38339	463.36496	235.44376	85.51952	838.89355	314.07724	165.91017	885.08081	421.25204	245.09628	962.68878	198.31943	307.10349	77.28647	674.53943	402.40894	74.33139	666.66455	349.11621	24.70148	481.31589	397.70215	104.71725	542.31476	396.95535	502.03647	481.96054	460.74951	808.49902	391.73135	360.77747	899.73749	444.70938	320.42722	952.59027	201.49213	
9	0.067	247.53127	48.50692	62.93941	142.94507	50.18137	36.21071	210.76060	140.04941	-113.66284	151.85910	170.09853	-1.03166	138.21227	462.83594	238.80646	87.29852	838.60242	316.32135	167.15514	885.10004	423.45148	247.08139	962.10565	200.45319	306.32208	71.38173	667.62689	401.70660	69.68457	660.13074	349.27435	25.64354	472.52332	397.57932	103.75421	536.53711	397.26929	502.23019	482.03452	462.04248	809.36713	396.05490	362.30246	900.05682	447.31506	322.25424	952.40710	203.57162	
10	0.075	247.41490	48.45319	54.94793	142.89670	51.40880	28.78207	211.21313	149.77484	-116.00903	151.43506	174.13641	-2.71576	137.33913	462.16635	243.24171	88.69237	838.32715	318.48215	168.60472	885.32196	425.53281	248.76720	961.94531	202.26643	305.69757	66.67083	660.10107	401.09476	66.44984	653.12708	349.69440	26.39177	463.47464	397.41739	102.99362	530.52826	397.50735	502.72717	482.89941	463.83963	810.29620	398.91284	363.19510	900.55499	449.32449	324.07086	952.44922	205.64481	
11	0.083	247.03720	49.23463	47.61402	142.88266	52.62510	21.93604	210.88608	159.45148	-117.04731	150.26561	178.57176	-3.62205	136.05330	461.17072	248.31552	90.20616	838.03241	320.79034	170.25076	885.20886	427.60233	250.08325	961.23828	204.26683	305.04602	64.12110	651.69861	400.51419	65.16734	645.12360	349.81610	26.79672	454.22253	397.13663	102.52042	523.51050	398.54947	503.95639	484.48471	465.18307	811.88342	401.43533	364.91821	901.16302	451.66327	325.58691	952.78204	207.58244	
12	0.092	246.61955	50.06218	40.52998	142.78888	54.60151	15.64293	210.16780	170.16164	-116.80083	149.19295	183.03162	-3.48727	134.64072	460.39484	254.28006	92.08418	837.79932	323.44638	171.68977	886.11127	429.48322	250.96931	961.07263	205.73625	304.97760	63.04705	642.73492	400.46649	64.46782	636.18512	349.65088	26.90942	444.68271	397.31451	102.36707	515.43231	398.68369	505.37857	486.29883	466.83005	813.86292	404.25449	366.07501	901.34192	453.43631	326.88293	953.42096	209.27878	
13	0.100	246.78294	51.49596	34.15764	142.69569	57.26857	10.04644	209.59573	181.31859	-115.14421	148.48038	187.78906	-2.15076	133.51021	459.33383	261.43265	93.43254	837.56317	325.85550	173.92363	886.77032	431.25037	251.88899	961.05792	207.32669	305.43610	61.87238	633.87048	400.86310	63.70029	627.22296	350.25320	26.94881	435.26315	397.38858	102.26108	506.98581	398.37762	506.94952	487.53967	468.46652	815.93939	405.72913	368.21219	903.62769	455.12350	327.74780	954.37897	210.66605	
14	0.108	246.59962	53.92979	28.77976	142.27756	60.82194	5.07246	208.34915	193.36356	-111.95453	147.86594	192.68050	0.23168	131.99763	458.45901	269.00565	95.34297	837.21802	328.42294	175.81224	887.56116	432.62924	252.39159	961.08673	208.61905	305.43558	61.14830	625.17322	400.95758	62.94936	618.28955	350.43909	27.17844	425.92258	397.51373	102.19028	498.47983	398.27161	508.34149	488.37534	469.88062	818.19452	406.88870	369.52957	905.22253	456.59579	328.37897	955.46600	212.12224	
